<svg id="logo-2" xmlns="http://www.w3.org/2000/svg" viewBox="0 0 1076.19 339.77"><defs><style>.cls-1{stroke:#000;}.cls-1,.cls-2{stroke-miterlimit:10;stroke-width:0.5px;}.cls-2,.cls-3{fill:#feae00;}.cls-2{stroke:#feae00;}</style></defs><g id="back"><polygon id="back-right" class="cls-1" points="281.76 170.84 223.54 73.33 197.02 120.56 225.36 170.69 281.76 170.84"/><polygon id="back-left" class="cls-1" points="56.59 169.89 114.17 266.28 140.65 219.44 112.63 169.89 56.59 169.89"/></g><g id="up"><polygon id="up-black" class="cls-1" points="112.72 169.89 56.59 169.89 168.84 0.25 224.97 0.25 112.72 169.89"/><polygon id="up-orange-left" class="cls-2" points="56.59 169.89 0.47 169.89 112.72 0.25 168.84 0.25 56.59 169.89"/><polygon id="up-orange-right" class="cls-2" points="168.84 169.89 112.72 169.89 224.97 0.25 281.1 0.25 168.84 169.89"/></g><g id="down"><polygon class="cls-2" points="224.97 339.52 168.84 339.52 281.1 169.89 337.22 169.89 224.97 339.52"/><polygon id="down-orange-left" class="cls-2" points="112.72 339.52 56.59 339.52 168.84 169.89 224.97 169.89 112.72 339.52"/><polygon id="down-black" class="cls-1" points="168.84 339.52 112.72 339.52 224.97 169.89 281.1 169.89 168.84 339.52"/></g><g id="text"><g id="text-2" data-name="text"><path d="M354.82,262.31V94.53h29.76V237.17h69.78v25.14Z" transform="translate(0.47 -6.09)" style="fill: #FFFFFF !important;"/><path d="M495.93,114.29q-8,0-13.09-4.62a15.47,15.47,0,0,1-5.13-12.06,15.87,15.87,0,0,1,5.13-12.19,20.43,20.43,0,0,1,26.17,0,15.87,15.87,0,0,1,5.13,12.19A15.47,15.47,0,0,1,509,109.67C505.59,112.75,501.22,114.29,495.93,114.29Zm-14.88,148v-126h29.5v126Z" transform="translate(0.47 -6.09)" style="fill: #FFFFFF !important;"/><path d="M609.32,265.39a40.53,40.53,0,0,1-17.58-4.23A61,61,0,0,1,574.94,249h-.77l-2.56,13.34H548.26V81.19h29.5v46.69l-.77,21a73.59,73.59,0,0,1,17.32-11.29,44.92,44.92,0,0,1,19.11-4.36,47.58,47.58,0,0,1,21,4.49,43.53,43.53,0,0,1,15.65,12.83,59.15,59.15,0,0,1,9.75,20.14,97.23,97.23,0,0,1,3.33,26.42A86.57,86.57,0,0,1,658.71,226a67.11,67.11,0,0,1-11.94,21.42,51.33,51.33,0,0,1-17.18,13.35A47,47,0,0,1,609.32,265.39ZM603.16,241q12.57,0,21-10.9t8.46-32.46q0-19-6.41-29.5t-20.78-10.52q-13.34,0-27.71,14.11V230.5A40.71,40.71,0,0,0,591,238.71,36.82,36.82,0,0,0,603.16,241Z" transform="translate(0.47 -6.09)" style="fill: #FFFFFF !important;"/><path class="cls-3" d="M696.8,262.31V159.69H679.87V137.63l16.93-1.28V123.26a67.55,67.55,0,0,1,2.31-18.08,37.14,37.14,0,0,1,7.44-14.37,34.4,34.4,0,0,1,13-9.36q7.83-3.33,19.12-3.34a61.31,61.31,0,0,1,12.7,1.28,62.08,62.08,0,0,1,10.39,3.08l-5.65,22.07a33.73,33.73,0,0,0-13.85-3.08q-15.91,0-15.91,21.29v13.6h24.63v23.34H726.3V262.31Z" transform="translate(0.47 -6.09)"/><path class="cls-3" d="M798.39,265.39q-16.68,0-26.94-10.13t-10.26-26.81a36.79,36.79,0,0,1,4.24-17.83q4.23-7.83,13.34-13.47t23.09-9.49a210.76,210.76,0,0,1,33.48-5.9,49.11,49.11,0,0,0-1.41-9.37,21.64,21.64,0,0,0-3.85-7.95,18,18,0,0,0-7.06-5.39,26.75,26.75,0,0,0-10.77-1.92,47.79,47.79,0,0,0-18.09,3.59,122.65,122.65,0,0,0-17.32,8.72l-10.77-19.75a126.64,126.64,0,0,1,23.6-11.55,80.4,80.4,0,0,1,28.22-4.87q23.6,0,35.28,14t11.67,40.41v74.65H840.47l-2.06-13.85h-1a92.54,92.54,0,0,1-18.09,12.06A45.57,45.57,0,0,1,798.39,265.39Zm9.5-23.09a27.64,27.64,0,0,0,14-3.59,74.75,74.75,0,0,0,13.47-10.26V200.23a136,136,0,0,0-21.55,4.1,62.49,62.49,0,0,0-14.11,5.78,20.51,20.51,0,0,0-7.7,7.31,17.51,17.51,0,0,0-2.31,8.72q0,8.48,5.13,12.32T807.89,242.3Z" transform="translate(0.47 -6.09)"/><path class="cls-3" d="M935.39,265.39a69.73,69.73,0,0,1-25.79-5A83.39,83.39,0,0,1,887.67,248l13.85-19a79.69,79.69,0,0,0,16.81,10.39,43.82,43.82,0,0,0,18.08,3.72q10.26,0,15.14-4.23a13.76,13.76,0,0,0,4.87-10.9,10.71,10.71,0,0,0-2.3-6.8,22.25,22.25,0,0,0-6.16-5.26,59.5,59.5,0,0,0-8.72-4.23q-4.89-1.93-9.75-4-6.16-2.31-12.57-5.39a50.41,50.41,0,0,1-11.42-7.44,37.32,37.32,0,0,1-8.21-10.13A27.82,27.82,0,0,1,894.08,171q0-16.66,12.32-27.19T940,133.27a58.12,58.12,0,0,1,23.6,4.62,87.64,87.64,0,0,1,18.21,10.52l-13.59,18a71.19,71.19,0,0,0-13.47-7.82,35.54,35.54,0,0,0-14.24-2.95q-9.49,0-14,4a12.63,12.63,0,0,0-4.49,9.87,10.05,10.05,0,0,0,2.18,6.55,20,20,0,0,0,5.77,4.74,57.3,57.3,0,0,0,8.34,3.85q4.74,1.8,9.88,3.59,6.4,2.31,12.82,5.26a53.1,53.1,0,0,1,11.68,7.31,33.48,33.48,0,0,1,8.46,10.65,32.66,32.66,0,0,1,3.21,15,36.4,36.4,0,0,1-3.21,15.26A35.32,35.32,0,0,1,971.82,254a45.72,45.72,0,0,1-15.4,8.33A66.14,66.14,0,0,1,935.39,265.39Z" transform="translate(0.47 -6.09)"/><path class="cls-3" d="M1050.07,265.39q-11,0-18.6-3.33a31.53,31.53,0,0,1-12.32-9.37,38.65,38.65,0,0,1-6.92-14.36,73.27,73.27,0,0,1-2.18-18.6v-60h-18V137.63l19.5-1.28,3.59-34.38h24.63v34.38h32.07v23.34h-32.07v60q0,22.07,17.7,22.06a33.22,33.22,0,0,0,13.08-2.82l5.13,21.81a99.5,99.5,0,0,1-11.67,3.2A66.25,66.25,0,0,1,1050.07,265.39Z" transform="translate(0.47 -6.09)"/></g></g></svg>