<?xml version="1.0" standalone="no"?>
<!DOCTYPE svg PUBLIC "-//W3C//DTD SVG 20010904//EN"
 "http://www.w3.org/TR/2001/REC-SVG-20010904/DTD/svg10.dtd">
<svg version="1.0" xmlns="http://www.w3.org/2000/svg"
 width="2118.000000pt" height="2118.000000pt" viewBox="0 0 2118.000000 2118.000000"
 preserveAspectRatio="xMidYMid meet">
<metadata>
Created by potrace 1.14, written by Peter Selinger 2001-2017
</metadata>
<g transform="translate(0.000000,2118.000000) scale(0.100000,-0.100000)"
fill="#000000" stroke="none">
<path d="M6985 21015 c-55 -85 -106 -163 -113 -172 -7 -10 -128 -191 -268
-403 -140 -212 -283 -427 -317 -478 -34 -52 -67 -101 -72 -110 -6 -10 -68
-105 -139 -212 -71 -107 -253 -382 -404 -610 -151 -228 -342 -516 -423 -639
-82 -123 -149 -228 -149 -232 0 -5 -4 -9 -10 -9 -5 0 -10 -5 -10 -10 0 -6 -5
-16 -11 -23 -6 -7 -122 -181 -258 -387 -136 -206 -363 -548 -503 -760 -140
-212 -344 -520 -453 -685 -109 -165 -334 -505 -500 -755 -332 -501 -739 -1117
-979 -1480 -85 -129 -160 -242 -166 -250 -5 -8 -111 -168 -235 -355 -123 -187
-229 -347 -234 -355 -13 -18 -424 -640 -641 -969 -235 -355 -638 -964 -650
-981 -14 -21 -365 -553 -372 -565 -4 -7 576 -10 1740 -10 961 1 1754 -1 1763
-3 12 -3 103 -144 205 -321 40 -68 577 -966 615 -1028 22 -34 39 -65 39 -68 0
-4 12 -25 28 -48 15 -23 32 -51 39 -62 6 -11 78 -131 160 -268 81 -136 155
-260 165 -276 64 -111 394 -661 409 -683 10 -15 19 -29 19 -32 0 -2 36 -64 80
-137 44 -73 80 -134 80 -135 0 -2 20 -35 45 -74 25 -39 45 -73 45 -76 0 -3 15
-29 34 -57 30 -48 556 -926 582 -972 27 -49 328 -553 345 -577 10 -15 19 -29
19 -31 0 -2 90 -154 200 -338 111 -184 199 -341 197 -349 -4 -14 -210 -328
-776 -1180 -130 -195 -238 -359 -241 -365 -3 -5 -84 -129 -181 -275 -97 -146
-286 -431 -421 -635 -134 -203 -317 -480 -406 -614 -89 -134 -162 -245 -162
-248 0 -2 -5 -9 -11 -16 -5 -7 -97 -143 -202 -302 -106 -160 -284 -430 -397
-600 -113 -170 -207 -313 -209 -319 -2 -6 -7 -13 -10 -16 -7 -6 -301 -448
-301 -453 0 -2 2370 -3 5267 -3 l5266 1 48 70 c26 39 193 291 371 560 179 270
414 625 523 790 109 165 261 395 337 510 76 116 141 215 146 220 4 6 24 35 43
65 33 50 173 262 827 1250 118 179 293 442 387 585 94 143 306 463 470 710
164 248 377 569 473 715 97 146 290 438 430 650 141 212 346 522 457 690 390
590 945 1429 1320 1995 128 193 315 476 417 630 102 154 313 474 469 710 157
237 288 435 292 442 6 9 -403 12 -1748 11 l-1755 0 -20 24 c-11 13 -19 26 -20
29 0 4 -44 80 -99 170 -54 90 -239 400 -410 689 -172 289 -321 536 -330 550
-10 14 -42 67 -72 118 -30 51 -62 108 -73 125 -17 30 -690 1158 -752 1260 -16
27 -37 63 -48 80 -32 56 -324 543 -464 777 -74 124 -143 239 -152 255 -9 17
-129 217 -265 445 -137 228 -329 549 -427 713 -100 169 -175 304 -171 310 9
15 392 596 691 1047 130 195 317 479 417 630 100 151 307 464 461 695 153 231
281 425 284 430 3 6 90 138 194 295 162 244 360 542 731 1105 44 66 83 122 87
123 5 2 8 7 8 12 0 4 35 61 79 127 241 362 361 545 361 549 0 2 -2370 4 -5267
4 l-5268 -1 -100 -154z m5561 -7747 c38 -67 78 -138 89 -157 11 -20 62 -110
113 -201 51 -91 97 -172 102 -180 11 -17 192 -338 237 -420 17 -30 48 -84 68
-120 21 -36 54 -94 73 -130 19 -36 46 -81 59 -100 12 -19 23 -38 23 -43 0 -4
11 -24 23 -45 13 -20 35 -57 49 -82 14 -25 34 -61 45 -80 112 -196 293 -518
321 -570 19 -36 43 -77 54 -92 10 -14 18 -28 18 -31 0 -3 49 -91 109 -196 60
-106 111 -197 114 -204 3 -9 -380 -12 -1695 -10 -935 1 -1701 3 -1703 5 -4 4
69 114 614 938 681 1027 967 1460 1087 1642 71 109 130 198 130 198 1 0 33
-55 70 -122z m-1996 -2706 c0 -5 -52 -84 -376 -572 -181 -272 -331 -499 -334
-505 -3 -5 -77 -118 -164 -250 -88 -132 -240 -361 -338 -510 -98 -148 -183
-277 -189 -285 -5 -8 -106 -160 -224 -338 l-214 -323 -24 38 c-14 22 -38 63
-53 91 -16 29 -33 61 -39 70 -13 22 -86 151 -100 177 -12 23 -131 232 -145
255 -29 47 -160 282 -160 286 0 2 -18 33 -40 69 -22 36 -40 67 -40 69 0 2 -32
60 -71 128 -39 67 -86 150 -104 183 -18 33 -97 173 -175 310 -148 260 -169
297 -215 380 -16 28 -56 100 -90 160 -35 61 -71 126 -82 145 -11 19 -68 119
-126 223 -59 103 -107 191 -107 195 0 4 767 7 1705 7 938 0 1705 -1 1705 -3z"/>
</g>
</svg>
